<?xml version="1.0" encoding="UTF-8" standalone="no"?>
<svg
   viewBox="0 0 56 56"
   version="1.1"
   id="svg8"
   sodipodi:docname="site-logo-v3.svg"
   inkscape:version="1.2.2 (732a01da63, 2022-12-09)"
   width="56"
   height="56"
   xmlns:inkscape="http://www.inkscape.org/namespaces/inkscape"
   xmlns:sodipodi="http://sodipodi.sourceforge.net/DTD/sodipodi-0.dtd"
   xmlns="http://www.w3.org/2000/svg"
   xmlns:svg="http://www.w3.org/2000/svg">
  <defs
     id="defs12">
    <inkscape:perspective
       sodipodi:type="inkscape:persp3d"
       inkscape:vp_x="0.012476604 : -39.80634 : 1"
       inkscape:vp_y="0 : 10.416667 : 0"
       inkscape:vp_z="1.1464931 : -39.880366 : 1"
       inkscape:persp3d-origin="0.55739237 : -38.914054 : 1"
       id="perspective307" />
    <inkscape:perspective
       sodipodi:type="inkscape:persp3d"
       inkscape:vp_x="-0.93797299 : -39.778053 : 1"
       inkscape:vp_y="0 : 14.021535 : 0"
       inkscape:vp_z="1.5725234 : -39.778053 : 1"
       inkscape:persp3d-origin="0.31727516 : -40.002398 : 1"
       id="perspective277" />
  </defs>
  <sodipodi:namedview
     id="namedview10"
     pagecolor="#ffffff"
     bordercolor="#666666"
     borderopacity="1.0"
     inkscape:showpageshadow="2"
     inkscape:pageopacity="0.0"
     inkscape:pagecheckerboard="true"
     inkscape:deskcolor="#d1d1d1"
     showgrid="false"
     inkscape:zoom="0.97379053"
     inkscape:cx="166.36021"
     inkscape:cy="-102.69149"
     inkscape:window-width="1920"
     inkscape:window-height="974"
     inkscape:window-x="-11"
     inkscape:window-y="-11"
     inkscape:window-maximized="1"
     inkscape:current-layer="svg8" />
  <path
     id="path267"
     style="stroke-width:1.13997"
     d="m 25.14,4 c -0.964475,0 -1.741041,0.7763565 -1.741041,1.740831 v 6.638957 a 16.290151,16.290148 0 0 0 -3.187917,1.324374 L 15.513959,9.007079 c -0.681986,-0.681981 -1.780097,-0.681981 -2.462085,0 l -4.0447911,4.044793 c -0.681984,0.681989 -0.681984,1.780103 0,2.462083 l 4.6970851,4.697083 a 16.290151,16.290148 0 0 0 -1.324375,3.187918 H 5.7408319 c -0.9644717,0 -1.7408318,0.77636 -1.7408318,1.740832 v 5.720211 c 0,0.964475 0.7763601,1.741042 1.7408318,1.741042 h 6.6389611 a 16.290151,16.290148 0 0 0 1.324375,3.187918 L 9.0070829,40.48604 c -0.681984,0.681987 -0.681984,1.780098 0,2.462085 l 4.0447911,4.044791 c 0.681988,0.681987 1.780098,0.681987 2.462085,0 l 4.697083,-4.697083 a 16.290151,16.290148 0 0 0 3.187917,1.324373 V 50.25917 C 23.398959,51.223644 24.175525,52 25.14,52 h 5.720211 c 0.964467,0 1.740831,-0.776356 1.740831,-1.74083 v -6.638964 a 16.290151,16.290148 0 0 0 3.187917,-1.324373 l 4.697082,4.697083 c 0.681993,0.681987 1.780097,0.681987 2.462079,0 l 4.044797,-4.044791 c 0.681981,-0.681987 0.681992,-1.780092 0,-2.462085 l -4.697084,-4.697081 a 16.290151,16.290148 0 0 0 1.324379,-3.187918 h 6.638953 C 51.223638,32.601041 52,31.824474 52,30.859999 v -5.720211 c 0,-0.964471 -0.776362,-1.740832 -1.740835,-1.740832 H 43.62625 A 16.290151,16.290148 0 0 0 42.302292,20.20458 l 4.690625,-4.690625 c 0.681981,-0.68198 0.681981,-1.780093 0,-2.462083 L 42.94812,9.007079 c -0.681982,-0.681981 -1.780092,-0.681981 -2.462079,0 l -4.690622,4.690628 A 16.290151,16.290148 0 0 0 32.601042,12.373751 V 5.740831 C 32.601042,4.7763565 31.824678,4 30.860211,4 Z m 2.860001,17.658125 a 6.3419669,6.3419669 0 0 1 6.341872,6.341872 6.3419669,6.3419669 0 0 1 -6.341872,6.341876 6.3419669,6.3419669 0 0 1 -6.341876,-6.341876 6.3419669,6.3419669 0 0 1 6.341876,-6.341872 z" />
</svg>
